<mxfile host="Electron" agent="Mozilla/5.0 (Windows NT 10.0; Win64; x64) AppleWebKit/537.36 (KHTML, like Gecko) draw.io/27.0.5 Chrome/134.0.6998.205 Electron/35.3.0 Safari/537.36" version="27.0.5">
  <diagram name="Página-1" id="UUi7gfnIOfDsekEkeXK4">
    <mxGraphModel dx="2455" dy="1044" grid="1" gridSize="10" guides="1" tooltips="1" connect="1" arrows="1" fold="1" page="1" pageScale="1" pageWidth="827" pageHeight="1169" math="0" shadow="0">
      <root>
        <mxCell id="0" />
        <mxCell id="1" parent="0" />
        <mxCell id="9O7iDJdSrH1p8DF2Hr6v-7" style="edgeStyle=orthogonalEdgeStyle;rounded=0;orthogonalLoop=1;jettySize=auto;html=1;" edge="1" parent="1" source="9O7iDJdSrH1p8DF2Hr6v-12" target="9O7iDJdSrH1p8DF2Hr6v-3">
          <mxGeometry relative="1" as="geometry">
            <mxPoint x="100" y="310" as="sourcePoint" />
          </mxGeometry>
        </mxCell>
        <mxCell id="9O7iDJdSrH1p8DF2Hr6v-13" style="edgeStyle=orthogonalEdgeStyle;rounded=0;orthogonalLoop=1;jettySize=auto;html=1;" edge="1" parent="1" source="9O7iDJdSrH1p8DF2Hr6v-3" target="9O7iDJdSrH1p8DF2Hr6v-14">
          <mxGeometry relative="1" as="geometry">
            <mxPoint x="530" y="230" as="targetPoint" />
          </mxGeometry>
        </mxCell>
        <mxCell id="9O7iDJdSrH1p8DF2Hr6v-3" value="TransferController" style="rounded=0;whiteSpace=wrap;html=1;" vertex="1" parent="1">
          <mxGeometry x="350" y="200" width="120" height="60" as="geometry" />
        </mxCell>
        <mxCell id="9O7iDJdSrH1p8DF2Hr6v-4" value="&lt;h1 style=&quot;margin-top: 0px;&quot;&gt;&lt;pre style=&quot;box-sizing: border-box; font-family: ui-monospace, SFMono-Regular, &amp;quot;SF Mono&amp;quot;, Menlo, Consolas, &amp;quot;Liberation Mono&amp;quot;, monospace; font-size: 13.6px; margin-top: 0px; margin-bottom: 0px; overflow-wrap: normal; padding: 16px; overflow: auto; line-height: 1.45; color: rgb(240, 246, 252); background-color: rgb(21, 27, 35); border-radius: 6px; word-break: normal; min-height: 52px; font-weight: 400;&quot;&gt;&lt;span style=&quot;box-sizing: border-box; color: rgb(255, 123, 114);&quot; class=&quot;pl-k&quot;&gt;POST&lt;/span&gt;&lt;span style=&quot;box-sizing: border-box; color: rgb(121, 192, 255);&quot; class=&quot;pl-c1&quot;&gt; /transfer&lt;/span&gt;&lt;br/&gt;&lt;span style=&quot;box-sizing: border-box; color: rgb(165, 214, 255);&quot; class=&quot;pl-s&quot;&gt;&lt;span style=&quot;box-sizing: border-box; color: rgb(121, 192, 255);&quot; class=&quot;pl-v&quot;&gt;Content-Type:&lt;/span&gt; application/json&lt;/span&gt;&lt;br/&gt;&lt;br/&gt;{&lt;br/&gt;  &lt;span style=&quot;box-sizing: border-box; color: rgb(126, 231, 135);&quot; class=&quot;pl-ent&quot;&gt;&quot;value&quot;&lt;/span&gt;: &lt;span style=&quot;box-sizing: border-box; color: rgb(121, 192, 255);&quot; class=&quot;pl-c1&quot;&gt;100.0&lt;/span&gt;,&lt;br/&gt;  &lt;span style=&quot;box-sizing: border-box; color: rgb(126, 231, 135);&quot; class=&quot;pl-ent&quot;&gt;&quot;payer&quot;&lt;/span&gt;: &lt;span style=&quot;box-sizing: border-box; color: rgb(121, 192, 255);&quot; class=&quot;pl-c1&quot;&gt;4&lt;/span&gt;,&lt;br/&gt;  &lt;span style=&quot;box-sizing: border-box; color: rgb(126, 231, 135);&quot; class=&quot;pl-ent&quot;&gt;&quot;payee&quot;&lt;/span&gt;: &lt;span style=&quot;box-sizing: border-box; color: rgb(121, 192, 255);&quot; class=&quot;pl-c1&quot;&gt;15&lt;/span&gt;&lt;br/&gt;}&lt;/pre&gt;&lt;/h1&gt;" style="text;html=1;whiteSpace=wrap;overflow=hidden;rounded=0;" vertex="1" parent="1">
          <mxGeometry x="90" y="290" width="310" height="210" as="geometry" />
        </mxCell>
        <mxCell id="9O7iDJdSrH1p8DF2Hr6v-12" value="Pessoa física" style="shape=umlActor;verticalLabelPosition=bottom;verticalAlign=top;html=1;outlineConnect=0;" vertex="1" parent="1">
          <mxGeometry x="50" y="200" width="30" height="60" as="geometry" />
        </mxCell>
        <mxCell id="9O7iDJdSrH1p8DF2Hr6v-20" style="edgeStyle=orthogonalEdgeStyle;rounded=0;orthogonalLoop=1;jettySize=auto;html=1;" edge="1" parent="1" source="9O7iDJdSrH1p8DF2Hr6v-14" target="9O7iDJdSrH1p8DF2Hr6v-16">
          <mxGeometry relative="1" as="geometry" />
        </mxCell>
        <mxCell id="9O7iDJdSrH1p8DF2Hr6v-21" value="Produce" style="edgeLabel;html=1;align=center;verticalAlign=middle;resizable=0;points=[];" vertex="1" connectable="0" parent="9O7iDJdSrH1p8DF2Hr6v-20">
          <mxGeometry x="-0.0524" y="-2" relative="1" as="geometry">
            <mxPoint as="offset" />
          </mxGeometry>
        </mxCell>
        <mxCell id="9O7iDJdSrH1p8DF2Hr6v-14" value="TransferProducer" style="whiteSpace=wrap;html=1;" vertex="1" parent="1">
          <mxGeometry x="540" y="200" width="120" height="60" as="geometry" />
        </mxCell>
        <mxCell id="9O7iDJdSrH1p8DF2Hr6v-16" value="Transfer" style="swimlane;childLayout=stackLayout;horizontal=1;fillColor=none;horizontalStack=1;resizeParent=1;resizeParentMax=0;resizeLast=0;collapsible=0;strokeColor=none;stackBorder=10;stackSpacing=-12;resizable=1;align=center;points=[];whiteSpace=wrap;html=1;startSize=23;" vertex="1" parent="1">
          <mxGeometry x="452" y="310" width="296" height="100" as="geometry" />
        </mxCell>
        <mxCell id="9O7iDJdSrH1p8DF2Hr6v-17" value="Transfer 1" style="shape=step;perimeter=stepPerimeter;fixedSize=1;points=[];whiteSpace=wrap;html=1;" vertex="1" parent="9O7iDJdSrH1p8DF2Hr6v-16">
          <mxGeometry x="10" y="33" width="100" height="57" as="geometry" />
        </mxCell>
        <mxCell id="9O7iDJdSrH1p8DF2Hr6v-18" value="Transfer 2" style="shape=step;perimeter=stepPerimeter;fixedSize=1;points=[];whiteSpace=wrap;html=1;" vertex="1" parent="9O7iDJdSrH1p8DF2Hr6v-16">
          <mxGeometry x="98" y="33" width="100" height="57" as="geometry" />
        </mxCell>
        <mxCell id="9O7iDJdSrH1p8DF2Hr6v-19" value="Transfer 3" style="shape=step;perimeter=stepPerimeter;fixedSize=1;points=[];whiteSpace=wrap;html=1;" vertex="1" parent="9O7iDJdSrH1p8DF2Hr6v-16">
          <mxGeometry x="186" y="33" width="100" height="57" as="geometry" />
        </mxCell>
        <mxCell id="9O7iDJdSrH1p8DF2Hr6v-23" style="edgeStyle=orthogonalEdgeStyle;rounded=0;orthogonalLoop=1;jettySize=auto;html=1;" edge="1" parent="1" source="9O7iDJdSrH1p8DF2Hr6v-22" target="9O7iDJdSrH1p8DF2Hr6v-16">
          <mxGeometry relative="1" as="geometry" />
        </mxCell>
        <mxCell id="9O7iDJdSrH1p8DF2Hr6v-24" value="Consume" style="edgeLabel;html=1;align=center;verticalAlign=middle;resizable=0;points=[];" vertex="1" connectable="0" parent="9O7iDJdSrH1p8DF2Hr6v-23">
          <mxGeometry x="0.1476" y="-2" relative="1" as="geometry">
            <mxPoint as="offset" />
          </mxGeometry>
        </mxCell>
        <mxCell id="9O7iDJdSrH1p8DF2Hr6v-30" style="edgeStyle=orthogonalEdgeStyle;rounded=0;orthogonalLoop=1;jettySize=auto;html=1;" edge="1" parent="1" source="9O7iDJdSrH1p8DF2Hr6v-22" target="9O7iDJdSrH1p8DF2Hr6v-28">
          <mxGeometry relative="1" as="geometry" />
        </mxCell>
        <mxCell id="9O7iDJdSrH1p8DF2Hr6v-22" value="TransferConsumer" style="whiteSpace=wrap;html=1;" vertex="1" parent="1">
          <mxGeometry x="540" y="500" width="120" height="60" as="geometry" />
        </mxCell>
        <mxCell id="9O7iDJdSrH1p8DF2Hr6v-35" style="edgeStyle=orthogonalEdgeStyle;rounded=0;orthogonalLoop=1;jettySize=auto;html=1;" edge="1" parent="1" source="9O7iDJdSrH1p8DF2Hr6v-25" target="9O7iDJdSrH1p8DF2Hr6v-36">
          <mxGeometry relative="1" as="geometry">
            <mxPoint x="1080" y="220" as="targetPoint" />
          </mxGeometry>
        </mxCell>
        <mxCell id="9O7iDJdSrH1p8DF2Hr6v-49" style="edgeStyle=orthogonalEdgeStyle;rounded=0;orthogonalLoop=1;jettySize=auto;html=1;" edge="1" parent="1" source="9O7iDJdSrH1p8DF2Hr6v-25" target="9O7iDJdSrH1p8DF2Hr6v-48">
          <mxGeometry relative="1" as="geometry" />
        </mxCell>
        <mxCell id="9O7iDJdSrH1p8DF2Hr6v-25" value="DoTransfer" style="whiteSpace=wrap;html=1;" vertex="1" parent="1">
          <mxGeometry x="785" y="240" width="120" height="60" as="geometry" />
        </mxCell>
        <mxCell id="9O7iDJdSrH1p8DF2Hr6v-31" style="edgeStyle=orthogonalEdgeStyle;rounded=0;orthogonalLoop=1;jettySize=auto;html=1;" edge="1" parent="1" source="9O7iDJdSrH1p8DF2Hr6v-28" target="9O7iDJdSrH1p8DF2Hr6v-29">
          <mxGeometry relative="1" as="geometry" />
        </mxCell>
        <mxCell id="9O7iDJdSrH1p8DF2Hr6v-28" value="VerifyTransfer&lt;span style=&quot;background-color: transparent; color: light-dark(rgb(0, 0, 0), rgb(255, 255, 255));&quot;&gt;Auhtorization&lt;/span&gt;" style="whiteSpace=wrap;html=1;" vertex="1" parent="1">
          <mxGeometry x="770" y="500" width="150" height="60" as="geometry" />
        </mxCell>
        <mxCell id="9O7iDJdSrH1p8DF2Hr6v-32" style="edgeStyle=orthogonalEdgeStyle;rounded=0;orthogonalLoop=1;jettySize=auto;html=1;exitX=0.5;exitY=0;exitDx=0;exitDy=0;" edge="1" parent="1" source="9O7iDJdSrH1p8DF2Hr6v-29" target="9O7iDJdSrH1p8DF2Hr6v-25">
          <mxGeometry relative="1" as="geometry" />
        </mxCell>
        <mxCell id="9O7iDJdSrH1p8DF2Hr6v-33" value="" style="edgeStyle=orthogonalEdgeStyle;rounded=0;orthogonalLoop=1;jettySize=auto;html=1;" edge="1" parent="1" source="9O7iDJdSrH1p8DF2Hr6v-29" target="9O7iDJdSrH1p8DF2Hr6v-25">
          <mxGeometry relative="1" as="geometry" />
        </mxCell>
        <mxCell id="9O7iDJdSrH1p8DF2Hr6v-29" value="CheckWalletBalance" style="whiteSpace=wrap;html=1;" vertex="1" parent="1">
          <mxGeometry x="785" y="380" width="120" height="60" as="geometry" />
        </mxCell>
        <mxCell id="9O7iDJdSrH1p8DF2Hr6v-42" style="edgeStyle=orthogonalEdgeStyle;rounded=0;orthogonalLoop=1;jettySize=auto;html=1;" edge="1" parent="1" source="9O7iDJdSrH1p8DF2Hr6v-36" target="9O7iDJdSrH1p8DF2Hr6v-38">
          <mxGeometry relative="1" as="geometry" />
        </mxCell>
        <mxCell id="9O7iDJdSrH1p8DF2Hr6v-43" value="Produce" style="edgeLabel;html=1;align=center;verticalAlign=middle;resizable=0;points=[];" vertex="1" connectable="0" parent="9O7iDJdSrH1p8DF2Hr6v-42">
          <mxGeometry x="0.06" y="-1" relative="1" as="geometry">
            <mxPoint as="offset" />
          </mxGeometry>
        </mxCell>
        <mxCell id="9O7iDJdSrH1p8DF2Hr6v-36" value="NotificationProducer" style="whiteSpace=wrap;html=1;" vertex="1" parent="1">
          <mxGeometry x="1080" y="240" width="120" height="60" as="geometry" />
        </mxCell>
        <mxCell id="9O7iDJdSrH1p8DF2Hr6v-38" value="Notification" style="swimlane;childLayout=stackLayout;horizontal=1;fillColor=none;horizontalStack=1;resizeParent=1;resizeParentMax=0;resizeLast=0;collapsible=0;strokeColor=none;stackBorder=10;stackSpacing=-12;resizable=1;align=center;points=[];whiteSpace=wrap;html=1;" vertex="1" parent="1">
          <mxGeometry x="960" y="400" width="360" height="100" as="geometry" />
        </mxCell>
        <mxCell id="9O7iDJdSrH1p8DF2Hr6v-39" value="Notification 1" style="shape=step;perimeter=stepPerimeter;fixedSize=1;points=[];whiteSpace=wrap;html=1;" vertex="1" parent="9O7iDJdSrH1p8DF2Hr6v-38">
          <mxGeometry x="10" y="33" width="120" height="57" as="geometry" />
        </mxCell>
        <mxCell id="9O7iDJdSrH1p8DF2Hr6v-40" value="Notification 2" style="shape=step;perimeter=stepPerimeter;fixedSize=1;points=[];whiteSpace=wrap;html=1;" vertex="1" parent="9O7iDJdSrH1p8DF2Hr6v-38">
          <mxGeometry x="118" y="33" width="122" height="57" as="geometry" />
        </mxCell>
        <mxCell id="9O7iDJdSrH1p8DF2Hr6v-41" value="Notification 3" style="shape=step;perimeter=stepPerimeter;fixedSize=1;points=[];whiteSpace=wrap;html=1;" vertex="1" parent="9O7iDJdSrH1p8DF2Hr6v-38">
          <mxGeometry x="228" y="33" width="122" height="57" as="geometry" />
        </mxCell>
        <mxCell id="9O7iDJdSrH1p8DF2Hr6v-45" style="edgeStyle=orthogonalEdgeStyle;rounded=0;orthogonalLoop=1;jettySize=auto;html=1;" edge="1" parent="1" source="9O7iDJdSrH1p8DF2Hr6v-44" target="9O7iDJdSrH1p8DF2Hr6v-40">
          <mxGeometry relative="1" as="geometry">
            <mxPoint x="1140" y="550" as="sourcePoint" />
          </mxGeometry>
        </mxCell>
        <mxCell id="9O7iDJdSrH1p8DF2Hr6v-46" value="Consume" style="edgeLabel;html=1;align=center;verticalAlign=middle;resizable=0;points=[];" vertex="1" connectable="0" parent="9O7iDJdSrH1p8DF2Hr6v-45">
          <mxGeometry x="-0.1475" y="-4" relative="1" as="geometry">
            <mxPoint as="offset" />
          </mxGeometry>
        </mxCell>
        <mxCell id="9O7iDJdSrH1p8DF2Hr6v-44" value="NotificationConsumer" style="whiteSpace=wrap;html=1;" vertex="1" parent="1">
          <mxGeometry x="1080" y="550" width="120" height="60" as="geometry" />
        </mxCell>
        <mxCell id="9O7iDJdSrH1p8DF2Hr6v-48" value="Tranfer" style="shape=cylinder3;whiteSpace=wrap;html=1;boundedLbl=1;backgroundOutline=1;size=15;" vertex="1" parent="1">
          <mxGeometry x="815" y="100" width="60" height="80" as="geometry" />
        </mxCell>
      </root>
    </mxGraphModel>
  </diagram>
</mxfile>
